<svg id="visual" viewBox="0 0 960 540" width="960" height="540" xmlns="http://www.w3.org/2000/svg" xmlns:xlink="http://www.w3.org/1999/xlink" version="1.1"><rect x="0" y="0" width="960" height="540" fill="#0e111a"></rect><defs><linearGradient id="grad1_0" x1="43.8%" y1="0%" x2="100%" y2="100%"><stop offset="14.444444444444446%" stop-color="#760079" stop-opacity="1"></stop><stop offset="85.55555555555554%" stop-color="#760079" stop-opacity="1"></stop></linearGradient></defs><defs><linearGradient id="grad1_1" x1="43.8%" y1="0%" x2="100%" y2="100%"><stop offset="14.444444444444446%" stop-color="#760079" stop-opacity="1"></stop><stop offset="85.55555555555554%" stop-color="#640068" stop-opacity="1"></stop></linearGradient></defs><defs><linearGradient id="grad1_2" x1="43.8%" y1="0%" x2="100%" y2="100%"><stop offset="14.444444444444446%" stop-color="#510057" stop-opacity="1"></stop><stop offset="85.55555555555554%" stop-color="#640068" stop-opacity="1"></stop></linearGradient></defs><defs><linearGradient id="grad1_3" x1="43.8%" y1="0%" x2="100%" y2="100%"><stop offset="14.444444444444446%" stop-color="#510057" stop-opacity="1"></stop><stop offset="85.55555555555554%" stop-color="#3f0046" stop-opacity="1"></stop></linearGradient></defs><defs><linearGradient id="grad1_4" x1="43.8%" y1="0%" x2="100%" y2="100%"><stop offset="14.444444444444446%" stop-color="#000000" stop-opacity="1"></stop><stop offset="85.55555555555554%" stop-color="#3f0046" stop-opacity="1"></stop></linearGradient></defs><defs><linearGradient id="grad2_0" x1="0%" y1="0%" x2="56.3%" y2="100%"><stop offset="14.444444444444446%" stop-color="#760079" stop-opacity="1"></stop><stop offset="85.55555555555554%" stop-color="#760079" stop-opacity="1"></stop></linearGradient></defs><defs><linearGradient id="grad2_1" x1="0%" y1="0%" x2="56.3%" y2="100%"><stop offset="14.444444444444446%" stop-color="#640068" stop-opacity="1"></stop><stop offset="85.55555555555554%" stop-color="#760079" stop-opacity="1"></stop></linearGradient></defs><defs><linearGradient id="grad2_2" x1="0%" y1="0%" x2="56.3%" y2="100%"><stop offset="14.444444444444446%" stop-color="#640068" stop-opacity="1"></stop><stop offset="85.55555555555554%" stop-color="#510057" stop-opacity="1"></stop></linearGradient></defs><defs><linearGradient id="grad2_3" x1="0%" y1="0%" x2="56.3%" y2="100%"><stop offset="14.444444444444446%" stop-color="#3f0046" stop-opacity="1"></stop><stop offset="85.55555555555554%" stop-color="#510057" stop-opacity="1"></stop></linearGradient></defs><defs><linearGradient id="grad2_4" x1="0%" y1="0%" x2="56.3%" y2="100%"><stop offset="14.444444444444446%" stop-color="#3f0046" stop-opacity="1"></stop><stop offset="85.55555555555554%" stop-color="#000000" stop-opacity="1"></stop></linearGradient></defs><g transform="translate(960, 0)"><path d="M0 297C-24.3 241.9 -48.6 186.7 -97.5 168.9C-146.4 151 -219.9 170.4 -257.2 148.5C-294.6 126.6 -295.8 63.3 -297 0L0 0Z" fill="#37003e"></path><path d="M0 237.6C-19.4 193.5 -38.9 149.4 -78 135.1C-117.1 120.8 -175.9 136.3 -205.8 118.8C-235.6 101.3 -236.6 50.6 -237.6 0L0 0Z" fill="#48004e"></path><path d="M0 178.2C-14.6 145.1 -29.2 112 -58.5 101.3C-87.8 90.6 -131.9 102.3 -154.3 89.1C-176.7 75.9 -177.5 38 -178.2 0L0 0Z" fill="#5a005f"></path><path d="M0 118.8C-9.7 96.7 -19.4 74.7 -39 67.5C-58.6 60.4 -87.9 68.2 -102.9 59.4C-117.8 50.6 -118.3 25.3 -118.8 0L0 0Z" fill="#6d0070"></path><path d="M0 59.4C-4.9 48.4 -9.7 37.3 -19.5 33.8C-29.3 30.2 -44 34.1 -51.4 29.7C-58.9 25.3 -59.2 12.7 -59.4 0L0 0Z" fill="#760079"></path></g><g transform="translate(0, 540)"><path d="M0 -297C55.9 -291.5 111.8 -286 148.5 -257.2C185.2 -228.4 202.7 -176.3 224.3 -129.5C245.9 -82.7 271.4 -41.4 297 0L0 0Z" fill="#37003e"></path><path d="M0 -237.6C44.7 -233.2 89.4 -228.8 118.8 -205.8C148.2 -182.7 162.2 -141 179.4 -103.6C196.7 -66.2 217.1 -33.1 237.6 0L0 0Z" fill="#48004e"></path><path d="M0 -178.2C33.5 -174.9 67.1 -171.6 89.1 -154.3C111.1 -137 121.6 -105.8 134.6 -77.7C147.5 -49.6 162.9 -24.8 178.2 0L0 0Z" fill="#5a005f"></path><path d="M0 -118.8C22.4 -116.6 44.7 -114.4 59.4 -102.9C74.1 -91.4 81.1 -70.5 89.7 -51.8C98.3 -33.1 108.6 -16.5 118.8 0L0 0Z" fill="#6d0070"></path><path d="M0 -59.4C11.2 -58.3 22.4 -57.2 29.7 -51.4C37 -45.7 40.5 -35.3 44.9 -25.9C49.2 -16.5 54.3 -8.3 59.4 0L0 0Z" fill="#760079"></path></g></svg>